<svg xmlns="http://www.w3.org/2000/svg" viewBox="0 0 90 90" width="90" height="90"><defs><linearGradient id="g" x1="0" y1="0" x2="1" y2="1">
<stop offset="0" stop-color="#8a6a1f"/><stop offset=".3" stop-color="#e9c85a"/><stop offset=".48" stop-color="#fff3c4"/>
<stop offset=".62" stop-color="#c9a227"/><stop offset=".85" stop-color="#9c7a22"/><stop offset="1" stop-color="#e8cf7a"/>
</linearGradient></defs><g transform="translate(90 0) scale(-1 1)"><g fill="none" stroke="url(#g)" stroke-linecap="round">
<path stroke-width="3.2" d="M4 86 V26 Q4 4 26 4 H86"/>
<path stroke-width="1.2" d="M11 84 V30 Q11 11 30 11 H84"/>
<path stroke-width="2.2" d="M22 66 C22 38 38 22 66 22"/>
<path stroke-width="2.2" d="M66 22 C78 22 80 34 72 37 C66 39 62 32 67 30"/>
<path stroke-width="2.2" d="M22 66 C22 78 34 80 37 72 C39 66 32 62 30 67"/>
<path stroke-width="1.6" d="M30 48 C36 40 42 36 50 32"/>
</g>
<g fill="url(#g)">
<path d="M27 27 C36 17 50 16 56 23 C46 23 37 28 31 36 C26 42 21 36 27 27 Z"/>
<path d="M40 44 C44 36 52 34 56 36 C52 40 48 44 42 47 Z"/>
<circle cx="17" cy="17" r="7"/><circle cx="17" cy="17" r="2.6" fill="#fffdf5"/>
<circle cx="48" cy="11" r="2"/><circle cx="11" cy="48" r="2"/>
<circle cx="74" cy="11" r="1.6"/><circle cx="11" cy="74" r="1.6"/>
</g></g></svg>